<svg id="Layer_1" data-name="Layer 1" xmlns="http://www.w3.org/2000/svg" viewBox="0 0 288.26 55.77"><defs><style>.cls-1{font-size:51px;fill:#231f20;font-family:Onyx;}.cls-2{letter-spacing:-0.05em;}.cls-3{letter-spacing:0em;}.cls-4{fill:#ed1c24;}</style></defs><text class="cls-1" transform="translate(83.44 44.76)">NCIT NOTE SE<tspan class="cls-2" x="166.97" y="0">W</tspan><tspan class="cls-3" x="189.21" y="0">A</tspan></text><path class="cls-4" d="M87.7,94.8H47.53a.69.69,0,0,1-.68-.57.71.71,0,0,1,.45-.77,108.26,108.26,0,0,1,35.81-6.21L80.44,53.94a.67.67,0,0,1,.18-.52.68.68,0,0,1,.5-.22h3.07a.69.69,0,0,1,.68.63l3.52,40.22a.72.72,0,0,1-.18.53A.69.69,0,0,1,87.7,94.8ZM51.81,93.43H87L83.56,54.57H81.87l2.67,33.31a.69.69,0,0,1-.69.74A106.89,106.89,0,0,0,51.81,93.43Z" transform="translate(-6.67 -43.56)"/><path class="cls-4" d="M47.55,94.8H7.36a.69.69,0,0,1-.51-.22.72.72,0,0,1-.18-.53l3.52-40.22a.69.69,0,0,1,.68-.63h3.07a.68.68,0,0,1,.5.22.67.67,0,0,1,.18.52L12,87.25a108,108,0,0,1,35.73,6.19.69.69,0,0,1-.13,1.36ZM8.11,93.43H43.25a106.89,106.89,0,0,0-32-4.81.69.69,0,0,1-.69-.74l2.67-33.31H11.5Z" transform="translate(-6.67 -43.56)"/><path class="cls-4" d="M47.53,94.8a.7.7,0,0,1-.6-.35.69.69,0,0,1,.16-.87C55.66,86.49,65.72,83,77.84,83l1.26,0L76.61,48.38a.64.64,0,0,1,.17-.51.69.69,0,0,1,.48-.23c1.12,0,2.25-.07,3.4-.08h0a.69.69,0,0,1,.69.63l3.18,39.69a.69.69,0,0,1-.69.74,107.08,107.08,0,0,0-36.09,6.14A.62.62,0,0,1,47.53,94.8ZM77.84,84.42c-10.27,0-19,2.54-26.58,7.74a107.88,107.88,0,0,1,31.85-4.91L80,48.94,78,49l2.5,34.72a.72.72,0,0,1-.19.53.68.68,0,0,1-.52.21Z" transform="translate(-6.67 -43.56)"/><path class="cls-4" d="M47.53,94.8a.62.62,0,0,1-.23,0,107.08,107.08,0,0,0-36.09-6.14.69.69,0,0,1-.69-.74L13.7,48.19a.69.69,0,0,1,.69-.63h0c1.15,0,2.28,0,3.4.08a.69.69,0,0,1,.48.23.64.64,0,0,1,.17.51L16,83.06l1.26,0C29.34,83,39.4,86.49,48,93.58a.69.69,0,0,1,.16.87A.7.7,0,0,1,47.53,94.8ZM12,87.25A107.88,107.88,0,0,1,43.8,92.16c-7.58-5.2-16.32-7.74-26.58-7.74l-2,0a.69.69,0,0,1-.52-.21.72.72,0,0,1-.19-.53L17,49l-2-.05Z" transform="translate(-6.67 -43.56)"/><path class="cls-4" d="M47.53,94.8a.72.72,0,0,1-.29-.06.71.71,0,0,1-.4-.63V53.88A.66.66,0,0,1,47,53.5c5.24-7.63,15-10.79,30.1-9.75a.71.71,0,0,1,.64.64l2.81,39.16a.52.52,0,0,1,0,.21.68.68,0,0,1-.7.69h0l-2,0c-11.79,0-21.56,3.34-29.87,10.22A.66.66,0,0,1,47.53,94.8Zm.69-40.7V92.68C56.54,86.2,66.25,83,77.84,83l1.26,0-2.73-38C62.22,44.21,53.12,47.14,48.22,54.1Z" transform="translate(-6.67 -43.56)"/><path class="cls-4" d="M47.53,94.8a.66.66,0,0,1-.44-.16C38.78,87.76,29,84.42,17.22,84.42l-2,0a.69.69,0,0,1-.52-.21.72.72,0,0,1-.19-.53l2.83-39.32a.71.71,0,0,1,.64-.64c15.11-1,24.86,2.12,30.1,9.75a.66.66,0,0,1,.12.38V94.11a.71.71,0,0,1-.4.63A.72.72,0,0,1,47.53,94.8ZM17.22,83c11.59,0,21.3,3.16,29.62,9.64V54.1c-4.9-7-14-9.89-28.15-9L16,83.06Z" transform="translate(-6.67 -43.56)"/><path class="cls-4" d="M47.53,97.51c-2.87,0-5.12-1.49-5.12-3.4a.68.68,0,0,1,.69-.68H52a.68.68,0,0,1,.69.68C52.65,96,50.4,97.51,47.53,97.51ZM44,94.8a4.38,4.38,0,0,0,3.49,1.33A4.38,4.38,0,0,0,51,94.8Z" transform="translate(-6.67 -43.56)"/></svg>