<svg id="Layer_1" data-name="Layer 1" xmlns="http://www.w3.org/2000/svg" viewBox="0 0 296.85 40.24"><defs><style>.cls-1{fill:#ed1c24;}.cls-2{font-size:29px;fill:#2e3192;font-family:MyriadPro-Regular, Myriad Pro;}.cls-3{letter-spacing:-0.02em;}.cls-4{letter-spacing:0em;}.cls-5{letter-spacing:0.01em;}.cls-6{letter-spacing:-0.06em;}</style></defs><path class="cls-1" d="M63.07,84.36h-30a.52.52,0,0,1-.51-.43.52.52,0,0,1,.34-.57,80.68,80.68,0,0,1,26.7-4.63l-2-24.84a.53.53,0,0,1,.13-.39.52.52,0,0,1,.38-.17h2.28a.53.53,0,0,1,.52.47l2.62,30a.53.53,0,0,1-.13.39A.52.52,0,0,1,63.07,84.36Zm-26.77-1H62.51L60,54.36H58.72l2,24.84a.49.49,0,0,1-.14.38.5.5,0,0,1-.37.17A79.91,79.91,0,0,0,36.3,83.33Z" transform="translate(-2.63 -46.14)"/><path class="cls-1" d="M33.12,84.36h-30a.5.5,0,0,1-.38-.17.46.46,0,0,1-.13-.39l2.62-30a.51.51,0,0,1,.51-.47H8.05a.53.53,0,0,1,.52.56l-2,24.84a80.62,80.62,0,0,1,26.64,4.61.52.52,0,0,1-.1,1Zm-29.41-1H29.92A80,80,0,0,0,6,79.75a.51.51,0,0,1-.51-.55l2-24.84H6.24Z" transform="translate(-2.63 -46.14)"/><path class="cls-1" d="M33.11,84.36a.51.51,0,0,1-.33-.91c6.39-5.29,13.89-7.86,22.93-7.86h.94L54.79,49.74a.52.52,0,0,1,.13-.38.46.46,0,0,1,.36-.17c.83,0,1.68-.06,2.54-.06h0a.5.5,0,0,1,.51.47l2.38,29.6a.49.49,0,0,1-.14.38.5.5,0,0,1-.37.17,80,80,0,0,0-26.92,4.58Zm22.6-7.74a33.93,33.93,0,0,0-19.82,5.77,80.14,80.14,0,0,1,23.75-3.66L57.35,50.16l-1.5,0,1.87,25.9a.52.52,0,0,1-.15.39.46.46,0,0,1-.38.16Z" transform="translate(-2.63 -46.14)"/><path class="cls-1" d="M33.11,84.36a.47.47,0,0,1-.17,0A80,80,0,0,0,6,79.75a.51.51,0,0,1-.51-.55L7.88,49.6a.5.5,0,0,1,.51-.47h0c.86,0,1.7,0,2.53.06a.46.46,0,0,1,.36.17.48.48,0,0,1,.13.38L9.56,75.6h.94c9,0,16.54,2.57,22.93,7.86a.5.5,0,0,1,.12.65A.51.51,0,0,1,33.11,84.36ZM6.58,78.73a80.12,80.12,0,0,1,23.74,3.66A33.91,33.91,0,0,0,10.5,76.62L9,76.64a.48.48,0,0,1-.39-.16.51.51,0,0,1-.14-.39l1.86-25.9c-.49,0-1,0-1.5,0Z" transform="translate(-2.63 -46.14)"/><path class="cls-1" d="M33.11,84.36a.54.54,0,0,1-.22,0,.51.51,0,0,1-.3-.46v-30a.62.62,0,0,1,.09-.29c3.91-5.68,11.18-8,22.45-7.26a.52.52,0,0,1,.48.47L57.71,76a.78.78,0,0,1,0,.16.51.51,0,0,1-.52.51h0l-1.48,0c-8.79,0-16.08,2.49-22.28,7.62A.49.49,0,0,1,33.11,84.36ZM33.62,54V82.78c6.21-4.84,13.45-7.19,22.09-7.19h.94l-2-28.32C44.07,46.63,37.27,48.82,33.62,54Z" transform="translate(-2.63 -46.14)"/><path class="cls-1" d="M33.11,84.36a.5.5,0,0,1-.33-.12c-6.2-5.13-13.49-7.62-22.28-7.62L9,76.64a.48.48,0,0,1-.39-.16.51.51,0,0,1-.14-.39l2.11-29.33a.51.51,0,0,1,.47-.47c11.27-.78,18.54,1.58,22.45,7.26a.52.52,0,0,1,.09.29v30a.5.5,0,0,1-.29.46A.59.59,0,0,1,33.11,84.36ZM10.5,75.59c8.65,0,15.89,2.35,22.09,7.19V54c-3.65-5.19-10.44-7.38-21-6.73l-2,28.32Z" transform="translate(-2.63 -46.14)"/><path class="cls-1" d="M33.11,86.38c-2.14,0-3.82-1.11-3.82-2.53a.51.51,0,0,1,.51-.52h6.61a.51.51,0,0,1,.51.52C36.92,85.27,35.25,86.38,33.11,86.38Zm-2.61-2a3.31,3.31,0,0,0,2.61,1,3.29,3.29,0,0,0,2.6-1Z" transform="translate(-2.63 -46.14)"/><text class="cls-2" transform="translate(66.25 30.6)"><tspan xml:space="preserve">NCIT N  </tspan><tspan class="cls-3" x="94.77" y="0">O</tspan><tspan class="cls-4" x="114.03" y="0" xml:space="preserve">TE S  </tspan><tspan class="cls-5" x="175.45" y="0">E</tspan><tspan class="cls-6" x="189.97" y="0">W</tspan><tspan x="212.86" y="0">A</tspan></text></svg>